<svg width="118" height="40" viewBox="0 0 118 40" fill="none" xmlns="http://www.w3.org/2000/svg">
<path d="M13.8925 6.28965C13.6791 6.28965 13.4884 6.42566 13.4198 6.62768L9.37479 18.4799C9.21745 18.9413 8.5594 18.9273 8.42205 18.4592L4.95245 6.64835C4.88977 6.43566 4.69442 6.28965 4.47241 6.28965H0.500764C0.160737 6.28965 -0.0799462 6.62101 0.0247286 6.9437L6.11521 25.7151C6.18188 25.9211 6.37389 26.0612 6.59057 26.0612H10.6996C10.9142 26.0612 11.1049 25.9238 11.1736 25.7205L15.3813 13.2395C15.5339 12.7875 16.172 12.7848 16.328 13.2355L20.645 25.7245C20.715 25.9258 20.9044 26.0612 21.1177 26.0612H25.106C25.3234 26.0612 25.516 25.9205 25.5821 25.7131L31.5952 6.94237C31.6985 6.61968 31.4578 6.28965 31.1192 6.28965H27.3902C27.1675 6.28965 26.9715 6.437 26.9095 6.65102L23.5159 18.4426C23.3806 18.9126 22.7198 18.9286 22.5618 18.4659L18.5222 6.62768C18.4535 6.42566 18.2628 6.28965 18.0495 6.28965H13.8925Z" fill="#00C9B6"/>
<path d="M32.0228 20.7011C32.0228 23.8267 34.5804 26.6689 38.7213 26.6689C40.9669 26.6689 42.595 25.8735 43.6904 24.8808C44.0631 24.5428 44.8392 24.7921 44.8918 25.2921C44.9085 25.4568 44.9272 25.5948 44.9438 25.7075C44.9765 25.9202 45.1599 26.0602 45.3745 26.0602H48.7888C49.1282 26.0602 49.1588 25.7588 49.1555 25.4575C49.1488 24.8841 49.1555 24.0221 49.1555 22.8933V13.0686C49.1555 9.13026 46.8413 5.67933 40.7515 5.67933C36.0905 5.67933 33.0649 8.46621 32.4915 11.6938C32.4469 11.9438 32.6155 12.1772 32.8629 12.2332L36.1818 12.9845C36.4745 13.0506 36.7565 12.8445 36.8225 12.5518C37.2086 10.8324 38.552 9.53629 40.7922 9.53629C43.3904 9.53629 44.5271 10.8764 44.5271 12.5405C44.5271 13.2306 44.2024 13.7993 43.0657 13.962L37.9906 14.7327C34.621 15.2201 32.0228 17.1689 32.0228 20.7011ZM39.6148 22.9746C37.7473 22.9746 36.7325 21.7565 36.7325 20.4171C36.7325 18.793 37.91 17.9809 39.3714 17.7369L43.9531 17.0515C44.2558 17.0069 44.5271 17.2409 44.5271 17.5462V17.8589C44.5271 21.7159 42.2536 22.9746 39.6148 22.9746Z" fill="#00C9B6"/>
<path d="M57.0402 26.06C57.3162 26.06 57.5403 25.836 57.5403 25.56V0.500038C57.5403 0.224017 57.3162 0 57.0402 0H53.3306C53.0546 0 52.8306 0.224017 52.8306 0.500038V25.56C52.8306 25.836 53.0546 26.06 53.3306 26.06H57.0402Z" fill="#00C9B6"/>
<path d="M65.7855 26.06C66.0615 26.06 66.2855 25.836 66.2855 25.56V0.500038C66.2855 0.224017 66.0615 0 65.7855 0H62.0758C61.7998 0 61.5758 0.224017 61.5758 0.500038V25.56C61.5758 25.836 61.7998 26.06 62.0758 26.06H65.7855Z" fill="#00C9B6"/>
<path d="M73.7435 15.1821C73.4621 15.2575 73.1736 15.0774 73.1545 14.7871C73.0233 12.8109 74.1312 10.5393 76.7536 9.83661C79.6555 9.05906 81.6068 10.3702 82.4186 12.3234C82.528 12.5847 82.3674 12.8714 82.0937 12.9447L73.7435 15.1821ZM84.9306 17.6768C84.6574 17.6644 84.4277 17.8737 84.3905 18.1446C84.1395 19.9926 83.0714 21.5937 80.5476 22.27C77.8891 22.9823 75.2239 21.7217 74.1742 19.1771C74.0657 18.9142 74.2258 18.6256 74.5002 18.5521L87.6591 15.0262C87.842 14.9772 87.9598 14.8269 87.9335 14.6386C87.8945 14.3619 87.8124 13.9318 87.687 13.4636C86.0689 7.4248 81.5773 4.46687 75.695 6.04303C70.8714 7.3355 67.4725 12.5333 69.0908 18.5727C70.8245 25.043 76.4218 27.5783 81.5983 26.1913C85.9762 25.0182 88.2662 21.7638 88.5761 18.3352C88.6008 18.0614 88.3865 17.831 88.1125 17.8182L84.9306 17.6768Z" fill="#00C9B6"/>
<path d="M96.5076 0.740504C96.5076 0.463816 96.2842 0.240465 96.0075 0.240465H92.7453C92.4686 0.240465 92.2453 0.463816 92.2453 0.740504V3.20403C92.2453 4.94949 91.3112 6.28959 89.2004 6.28959H88.685C88.409 6.28959 88.1849 6.51295 88.1849 6.78963V9.97121C88.1849 10.2472 88.409 10.4712 88.685 10.4712H91.3392C91.6152 10.4712 91.8392 10.6946 91.8392 10.9713V20.418C91.8392 24.1123 94.1127 26.3045 97.7663 26.3045C99.0658 26.3045 99.8938 26.1158 100.34 25.9718C100.531 25.9111 100.649 25.7284 100.649 25.5284V22.5702C100.649 22.2548 100.359 22.0135 100.046 22.0521C99.7385 22.0895 99.3651 22.1228 99.0251 22.1228C97.279 22.1228 96.5076 21.3921 96.5076 19.6466V10.9713C96.5076 10.6946 96.7316 10.4712 97.0076 10.4712H100.109C100.385 10.4712 100.609 10.2472 100.609 9.97121V6.78963C100.609 6.51295 100.385 6.28959 100.109 6.28959H97.0076C96.7316 6.28959 96.5076 6.06558 96.5076 5.78956V0.740504Z" fill="#00C9B6"/>
<path d="M102.409 20.5871C102.173 20.6531 102.017 20.8805 102.065 21.1205C102.521 23.3713 104.782 26.6689 110.16 26.6689C115.194 26.6689 117.631 23.34 117.631 20.3358C117.631 17.4122 115.682 15.1387 111.947 14.3267L108.943 13.7179C107.724 13.4746 106.953 12.7032 106.953 11.6478C106.953 10.4297 108.13 9.37427 109.795 9.37427C112.032 9.37427 112.985 10.687 113.323 11.7791C113.412 12.0691 113.708 12.2632 114 12.1805L116.998 11.3238C117.243 11.2538 117.398 11.0117 117.336 10.765C116.831 8.7649 114.926 5.67933 109.795 5.67933C105.694 5.67933 102.527 8.60288 102.527 12.0531C102.527 14.7733 104.355 17.0469 107.846 17.8182L110.769 18.4683C112.353 18.793 113.084 19.605 113.084 20.6605C113.084 21.8786 112.068 22.934 110.12 22.934C107.884 22.934 106.578 21.6852 106.199 20.1544C106.124 19.8517 105.824 19.6411 105.523 19.7244L102.409 20.5871Z" fill="#00C9B6"/>
<path d="M82.5559 38.7189C82.5559 39.3603 83.0686 39.873 83.7093 39.873C84.3507 39.873 84.8774 39.3603 84.8774 38.7189C84.8774 38.0782 84.3507 37.5515 83.7093 37.5515C83.0686 37.5515 82.5559 38.0782 82.5559 38.7189Z" fill="#5C2799"/>
<path d="M85.7007 37.9065C85.7007 39.0033 86.5981 40 88.0509 40C88.7776 40 89.3203 39.7627 89.7017 39.452C89.8657 39.3186 90.205 39.536 90.2477 39.7433C90.2664 39.832 90.3197 39.7867 90.4097 39.7867H91.3898C91.6005 39.7867 91.7625 39.5933 91.7431 39.384C91.7258 39.1993 91.7111 38.9593 91.7111 38.6753V35.229C91.7111 33.8476 90.8991 32.6368 88.7629 32.6368C87.1948 32.6368 86.154 33.5362 85.894 34.609C85.854 34.7736 85.968 34.9296 86.1327 34.967L86.9861 35.1603C87.1808 35.2043 87.3675 35.065 87.4335 34.8763C87.6148 34.3603 88.0675 33.9896 88.7769 33.9896C89.689 33.9896 90.0877 34.4596 90.0877 35.0437C90.0877 35.2857 89.9737 35.485 89.575 35.5424L87.7942 35.813C86.6121 35.9837 85.7007 36.6671 85.7007 37.9065ZM88.3642 38.7039C87.7088 38.7039 87.3528 38.2766 87.3528 37.8065C87.3528 37.2372 87.7662 36.9525 88.2789 36.8665L89.7777 36.6424C89.941 36.6178 90.0877 36.7444 90.0877 36.9098C90.0877 38.2626 89.2896 38.7039 88.3642 38.7039Z" fill="#5C2799"/>
<path d="M96.0801 30.8866C96.1381 30.8866 96.1921 30.8886 96.2421 30.8912C96.4634 30.9026 96.6781 30.7379 96.6781 30.5159V29.7538C96.6781 29.6278 96.6055 29.5138 96.4828 29.4831C96.3174 29.4418 96.0788 29.4058 95.8094 29.4058C94.3846 29.4058 93.3879 30.3458 93.3879 31.898V32.5187C93.3879 32.7034 93.2385 32.852 93.0545 32.852H92.5105C92.3265 32.852 92.1771 33.0014 92.1771 33.1854V33.9575C92.1771 34.1415 92.3265 34.2908 92.5105 34.2908H93.0545C93.2385 34.2908 93.3879 34.4402 93.3879 34.6242V39.4552C93.3879 39.6392 93.5372 39.7886 93.7212 39.7886H94.7207C94.9053 39.7886 95.054 39.6392 95.054 39.4552V34.6242C95.054 34.4402 95.2034 34.2908 95.3874 34.2908H96.3301C96.5148 34.2908 96.6635 34.1415 96.6635 33.9575V33.1854C96.6635 33.0014 96.5148 32.852 96.3301 32.852H95.3874C95.2034 32.852 95.054 32.7034 95.054 32.5187V31.9406C95.054 31.0866 95.6381 30.8866 96.0801 30.8866Z" fill="#5C2799"/>
<path d="M101.32 33.082C101.32 32.9233 101.207 32.7846 101.049 32.7726C100.995 32.7686 100.938 32.766 100.877 32.766C100.315 32.766 99.8074 32.934 99.424 33.24C99.262 33.3694 98.8693 33.25 98.8693 33.0427C98.8693 32.9373 98.784 32.8513 98.6786 32.8513H97.5939C97.4092 32.8513 97.2605 33.0007 97.2605 33.1847V39.4545C97.2605 39.6385 97.4092 39.7878 97.5939 39.7878H98.5793C98.7633 39.7878 98.9126 39.6385 98.9126 39.4545V36.4836C98.9126 35.1875 99.496 34.4468 100.778 34.4468C100.829 34.4468 100.88 34.4481 100.933 34.4508C101.137 34.4601 101.32 34.3054 101.32 34.1007V33.082Z" fill="#5C2799"/>
<path d="M103.302 39.7881C103.486 39.7881 103.635 39.6387 103.635 39.4547V33.1849C103.635 33.0009 103.486 32.8515 103.302 32.8515H102.33C102.146 32.8515 101.997 33.0009 101.997 33.1849V39.4547C101.997 39.6387 102.146 39.7881 102.33 39.7881H103.302ZM101.741 30.4167C101.741 31.0147 102.225 31.4848 102.809 31.4848C103.407 31.4848 103.891 31.0147 103.891 30.4167C103.891 29.818 103.407 29.3339 102.809 29.3339C102.225 29.3339 101.741 29.818 101.741 30.4167Z" fill="#5C2799"/>
<path d="M108.073 34.1609C108.929 34.1609 109.4 34.6123 109.631 35.1097C109.713 35.289 109.914 35.3977 110.099 35.3303L110.951 35.019C111.112 34.9603 111.204 34.7883 111.144 34.6276C110.767 33.6122 109.763 32.6368 108.059 32.6368C106.064 32.6368 104.512 34.1749 104.512 36.3111C104.512 38.4192 106.064 40 108.101 40C109.759 40 110.768 39.0233 111.184 38.0325C111.253 37.8692 111.161 37.6885 110.995 37.6279L110.171 37.3292C109.991 37.2638 109.794 37.3652 109.706 37.5358C109.465 38.0012 108.973 38.4906 108.101 38.4906C107.061 38.4906 106.164 37.7072 106.164 36.3111C106.164 34.9156 107.061 34.1609 108.073 34.1609Z" fill="#5C2799"/>
<path d="M111.578 37.9065C111.578 39.0033 112.475 40 113.928 40C114.654 40 115.197 39.7627 115.578 39.452C115.743 39.3186 116.082 39.536 116.125 39.7433C116.143 39.832 116.196 39.7867 116.287 39.7867H117.267C117.477 39.7867 117.639 39.5933 117.62 39.384C117.603 39.1993 117.588 38.9593 117.588 38.6753V35.229C117.588 33.8476 116.776 32.6368 114.64 32.6368C113.071 32.6368 112.03 33.5362 111.771 34.609C111.731 34.7736 111.844 34.9296 112.01 34.967L112.862 35.1603C113.058 35.2043 113.244 35.065 113.31 34.8763C113.491 34.3603 113.944 33.9896 114.654 33.9896C115.565 33.9896 115.964 34.4596 115.964 35.0437C115.964 35.2857 115.851 35.485 115.451 35.5424L113.671 35.813C112.489 35.9837 111.578 36.6671 111.578 37.9065ZM114.241 38.7039C113.586 38.7039 113.23 38.2766 113.23 37.8065C113.23 37.2372 113.642 36.9525 114.156 36.8665L115.654 36.6424C115.817 36.6178 115.964 36.7444 115.964 36.9098C115.964 38.2626 115.166 38.7039 114.241 38.7039Z" fill="#5C2799"/>
</svg>
